<?xml version="1.0" encoding="UTF-8" standalone="no"?>
<!DOCTYPE svg PUBLIC "-//W3C//DTD SVG 1.1//EN"
 "http://www.w3.org/Graphics/SVG/1.1/DTD/svg11.dtd">
<!-- Generated by graphviz version 13.1.2 (0)
 -->
<!-- Pages: 1 -->
<svg width="1368pt" height="886pt"
 viewBox="0.00 0.00 1368.00 886.00" xmlns="http://www.w3.org/2000/svg" xmlns:xlink="http://www.w3.org/1999/xlink">
<g id="graph0" class="graph" transform="scale(1 1) rotate(0) translate(4 881.5)">
<polygon fill="black" stroke="none" points="-4,4 -4,-881.5 1364.38,-881.5 1364.38,4 -4,4"/>
<!-- attach -->
<g id="node1" class="node">
<title>attach</title>
<polygon fill="lightgrey" stroke="none" points="299.38,-877.5 212.88,-877.5 212.88,-841.5 299.38,-841.5 299.38,-877.5"/>
<text xml:space="preserve" text-anchor="middle" x="256.12" y="-854.83" font-family="Times,serif" font-size="14.00">vol attach</text>
</g>
<!-- wipe -->
<g id="node2" class="node">
<title>wipe</title>
<polygon fill="lightgrey" stroke="black" points="284.75,-804.5 227.5,-804.5 227.5,-768.5 284.75,-768.5 284.75,-804.5"/>
<text xml:space="preserve" text-anchor="middle" x="256.12" y="-781.83" font-family="Times,serif" font-size="14.00">wipe?</text>
</g>
<!-- attach&#45;&gt;wipe -->
<g id="edge1" class="edge">
<title>attach&#45;&gt;wipe</title>
<path fill="none" stroke="white" d="M256.12,-841.67C256.12,-834.06 256.12,-824.85 256.12,-816.2"/>
<polygon fill="white" stroke="white" points="259.63,-816.46 256.13,-806.46 252.63,-816.46 259.63,-816.46"/>
</g>
<!-- yes_wipe -->
<g id="node3" class="node">
<title>yes_wipe</title>
<polygon fill="lightgrey" stroke="black" points="318.25,-715.25 0,-715.25 0,-679.25 318.25,-679.25 318.25,-715.25"/>
<text xml:space="preserve" text-anchor="middle" x="159.12" y="-692.58" font-family="Times,serif" font-size="14.00">delete any volume w/ the specified tags/az</text>
</g>
<!-- wipe&#45;&gt;yes_wipe -->
<g id="edge2" class="edge">
<title>wipe&#45;&gt;yes_wipe</title>
<path fill="none" stroke="white" d="M236.96,-768.26C222.61,-755.36 202.78,-737.51 186.72,-723.07"/>
<polygon fill="white" stroke="white" points="189.15,-720.55 179.37,-716.46 184.47,-725.75 189.15,-720.55"/>
<text xml:space="preserve" text-anchor="middle" x="231.31" y="-737.2" font-family="Times,serif" font-size="14.00" fill="white">true</text>
</g>
<!-- find_volumes_and_snapshots_w_tags -->
<g id="node4" class="node">
<title>find_volumes_and_snapshots_w_tags</title>
<polygon fill="lightgrey" stroke="black" points="441.12,-642.25 71.12,-642.25 71.12,-606.25 441.12,-606.25 441.12,-642.25"/>
<text xml:space="preserve" text-anchor="middle" x="256.12" y="-619.58" font-family="Times,serif" font-size="14.00">find any volume/snapshot w/ the specified tags/az</text>
</g>
<!-- wipe&#45;&gt;find_volumes_and_snapshots_w_tags -->
<g id="edge3" class="edge">
<title>wipe&#45;&gt;find_volumes_and_snapshots_w_tags</title>
<path fill="none" stroke="white" d="M282.31,-768.01C298.57,-755.48 318.04,-737.01 327.12,-715.25 333.29,-700.48 334.23,-693.58 327.12,-679.25 321.11,-667.11 310.91,-656.96 300.09,-648.86"/>
<polygon fill="white" stroke="white" points="302.4,-646.2 292.18,-643.4 298.42,-651.96 302.4,-646.2"/>
<text xml:space="preserve" text-anchor="middle" x="348.98" y="-692.58" font-family="Times,serif" font-size="14.00" fill="white">false</text>
</g>
<!-- yes_wipe&#45;&gt;find_volumes_and_snapshots_w_tags -->
<g id="edge4" class="edge">
<title>yes_wipe&#45;&gt;find_volumes_and_snapshots_w_tags</title>
<path fill="none" stroke="white" d="M182.61,-679.06C194.91,-670.06 210.16,-658.89 223.58,-649.07"/>
<polygon fill="white" stroke="white" points="225.3,-652.15 231.3,-643.42 221.17,-646.5 225.3,-652.15"/>
</g>
<!-- attach_volume -->
<g id="node5" class="node">
<title>attach_volume</title>
<polygon fill="lightgrey" stroke="black" points="436.75,-360.5 319.5,-360.5 319.5,-324.5 436.75,-324.5 436.75,-360.5"/>
<text xml:space="preserve" text-anchor="middle" x="378.12" y="-337.82" font-family="Times,serif" font-size="14.00">attach volume</text>
</g>
<!-- find_volumes_and_snapshots_w_tags&#45;&gt;attach_volume -->
<g id="edge5" class="edge">
<title>find_volumes_and_snapshots_w_tags&#45;&gt;attach_volume</title>
<path fill="none" stroke="white" d="M185.84,-605.87C153.12,-594.99 115.49,-578.12 88.12,-553 33.68,-503 -18.98,-453.62 29.12,-397.5 64.28,-356.49 216.4,-346.35 307.8,-344.01"/>
<polygon fill="white" stroke="white" points="307.75,-347.52 317.67,-343.79 307.59,-340.52 307.75,-347.52"/>
<text xml:space="preserve" text-anchor="middle" x="77.42" y="-461.95" font-family="Times,serif" font-size="14.00" fill="white">volume is newer</text>
</g>
<!-- delete_volume -->
<g id="node6" class="node">
<title>delete_volume</title>
<polygon fill="lightgrey" stroke="black" points="415.25,-541.12 97,-541.12 97,-505.12 415.25,-505.12 415.25,-541.12"/>
<text xml:space="preserve" text-anchor="middle" x="256.12" y="-518.45" font-family="Times,serif" font-size="14.00">delete any volume w/ the specified tags/az</text>
</g>
<!-- find_volumes_and_snapshots_w_tags&#45;&gt;delete_volume -->
<g id="edge6" class="edge">
<title>find_volumes_and_snapshots_w_tags&#45;&gt;delete_volume</title>
<path fill="none" stroke="white" d="M256.12,-605.98C256.12,-591.36 256.12,-570.1 256.12,-552.91"/>
<polygon fill="white" stroke="white" points="259.63,-553.04 256.13,-543.04 252.63,-553.04 259.63,-553.04"/>
<text xml:space="preserve" text-anchor="middle" x="321" y="-574.95" font-family="Times,serif" font-size="14.00" fill="white">snapshot is newer</text>
</g>
<!-- snapshot_w_snapshot_tags_exists -->
<g id="node7" class="node">
<title>snapshot_w_snapshot_tags_exists</title>
<polygon fill="lightgrey" stroke="black" points="901.25,-553 541,-553 541,-493.25 901.25,-493.25 901.25,-553"/>
<text xml:space="preserve" text-anchor="middle" x="721.12" y="-535.7" font-family="Times,serif" font-size="14.00">a snapshot w/ the specified snapshot tags exists</text>
<text xml:space="preserve" text-anchor="middle" x="721.12" y="-518.45" font-family="Times,serif" font-size="14.00">(notice: snapshot tags, not tags)</text>
<text xml:space="preserve" text-anchor="middle" x="721.12" y="-501.2" font-family="Times,serif" font-size="14.00">(tags are mandatory, snapshot tags are not)</text>
</g>
<!-- find_volumes_and_snapshots_w_tags&#45;&gt;snapshot_w_snapshot_tags_exists -->
<g id="edge7" class="edge">
<title>find_volumes_and_snapshots_w_tags&#45;&gt;snapshot_w_snapshot_tags_exists</title>
<path fill="none" stroke="white" d="M338.19,-605.76C402.93,-591.96 494.95,-572.34 572.56,-555.8"/>
<polygon fill="white" stroke="white" points="572.88,-559.31 581.93,-553.8 571.42,-552.46 572.88,-559.31"/>
<text xml:space="preserve" text-anchor="middle" x="537.75" y="-574.95" font-family="Times,serif" font-size="14.00" fill="white">neither exists</text>
</g>
<!-- mount -->
<g id="node11" class="node">
<title>mount</title>
<polygon fill="lightgrey" stroke="black" points="412.75,-287.5 343.5,-287.5 343.5,-251.5 412.75,-251.5 412.75,-287.5"/>
<text xml:space="preserve" text-anchor="middle" x="378.12" y="-264.82" font-family="Times,serif" font-size="14.00">mount?</text>
</g>
<!-- attach_volume&#45;&gt;mount -->
<g id="edge14" class="edge">
<title>attach_volume&#45;&gt;mount</title>
<path fill="none" stroke="white" d="M378.12,-324.31C378.12,-316.73 378.12,-307.6 378.12,-299.04"/>
<polygon fill="white" stroke="white" points="381.63,-299.04 378.13,-289.04 374.63,-299.04 381.63,-299.04"/>
</g>
<!-- create_volume_from_snapshot_w_tags -->
<g id="node8" class="node">
<title>create_volume_from_snapshot_w_tags</title>
<polygon fill="lightgrey" stroke="black" points="474.5,-440 37.75,-440 37.75,-397.5 474.5,-397.5 474.5,-440"/>
<text xml:space="preserve" text-anchor="middle" x="256.12" y="-422.7" font-family="Times,serif" font-size="14.00">create a volume w/ the specified tags/az from the snapshot</text>
<text xml:space="preserve" text-anchor="middle" x="256.12" y="-405.45" font-family="Times,serif" font-size="14.00">w/ the specified tags</text>
</g>
<!-- delete_volume&#45;&gt;create_volume_from_snapshot_w_tags -->
<g id="edge8" class="edge">
<title>delete_volume&#45;&gt;create_volume_from_snapshot_w_tags</title>
<path fill="none" stroke="white" d="M256.12,-504.76C256.12,-490.3 256.12,-469.32 256.12,-451.82"/>
<polygon fill="white" stroke="white" points="259.63,-451.9 256.13,-441.9 252.63,-451.9 259.63,-451.9"/>
</g>
<!-- create_volume_from_snapshot_w_snapshot_tags -->
<g id="node9" class="node">
<title>create_volume_from_snapshot_w_snapshot_tags</title>
<polygon fill="lightgrey" stroke="black" points="950,-440 492.25,-440 492.25,-397.5 950,-397.5 950,-440"/>
<text xml:space="preserve" text-anchor="middle" x="721.12" y="-422.7" font-family="Times,serif" font-size="14.00">create a volume witth the specified tags/az from the snapshot</text>
<text xml:space="preserve" text-anchor="middle" x="721.12" y="-405.45" font-family="Times,serif" font-size="14.00">with the specified snapshot tags</text>
</g>
<!-- snapshot_w_snapshot_tags_exists&#45;&gt;create_volume_from_snapshot_w_snapshot_tags -->
<g id="edge10" class="edge">
<title>snapshot_w_snapshot_tags_exists&#45;&gt;create_volume_from_snapshot_w_snapshot_tags</title>
<path fill="none" stroke="white" d="M721.12,-492.79C721.12,-479.94 721.12,-464.83 721.12,-451.7"/>
<polygon fill="white" stroke="white" points="724.63,-451.83 721.13,-441.83 717.63,-451.83 724.63,-451.83"/>
<text xml:space="preserve" text-anchor="middle" x="736.12" y="-461.95" font-family="Times,serif" font-size="14.00" fill="white">true</text>
</g>
<!-- create_empty_volume -->
<g id="node10" class="node">
<title>create_empty_volume</title>
<polygon fill="lightgrey" stroke="black" points="1360.38,-436.75 967.88,-436.75 967.88,-400.75 1360.38,-400.75 1360.38,-436.75"/>
<text xml:space="preserve" text-anchor="middle" x="1164.12" y="-414.07" font-family="Times,serif" font-size="14.00">create an empty volume w/ the specified tags/az/size</text>
</g>
<!-- snapshot_w_snapshot_tags_exists&#45;&gt;create_empty_volume -->
<g id="edge11" class="edge">
<title>snapshot_w_snapshot_tags_exists&#45;&gt;create_empty_volume</title>
<path fill="none" stroke="white" d="M848.07,-492.79C921.55,-475.81 1012.11,-454.88 1077.43,-439.78"/>
<polygon fill="white" stroke="white" points="1078.08,-443.23 1087.03,-437.57 1076.5,-436.41 1078.08,-443.23"/>
<text xml:space="preserve" text-anchor="middle" x="1012.21" y="-461.95" font-family="Times,serif" font-size="14.00" fill="white">false</text>
</g>
<!-- create_volume_from_snapshot_w_tags&#45;&gt;attach_volume -->
<g id="edge9" class="edge">
<title>create_volume_from_snapshot_w_tags&#45;&gt;attach_volume</title>
<path fill="none" stroke="white" d="M290.11,-397.07C305.64,-387.61 324.1,-376.38 340.09,-366.65"/>
<polygon fill="white" stroke="white" points="341.67,-369.79 348.39,-361.6 338.03,-363.81 341.67,-369.79"/>
</g>
<!-- create_volume_from_snapshot_w_snapshot_tags&#45;&gt;attach_volume -->
<g id="edge13" class="edge">
<title>create_volume_from_snapshot_w_snapshot_tags&#45;&gt;attach_volume</title>
<path fill="none" stroke="white" d="M625.58,-397.07C569.25,-384.87 499.23,-369.72 448.06,-358.64"/>
<polygon fill="white" stroke="white" points="449.11,-355.29 438.6,-356.59 447.63,-362.13 449.11,-355.29"/>
</g>
<!-- create_empty_volume&#45;&gt;attach_volume -->
<g id="edge12" class="edge">
<title>create_empty_volume&#45;&gt;attach_volume</title>
<path fill="none" stroke="white" d="M987.73,-400.26C978.05,-399.32 968.47,-398.4 959.12,-397.5 774.81,-379.83 557.51,-359.86 448.29,-349.89"/>
<polygon fill="white" stroke="white" points="448.89,-346.43 438.61,-349.01 448.25,-353.4 448.89,-346.43"/>
</g>
<!-- formatted -->
<g id="node12" class="node">
<title>formatted</title>
<polygon fill="lightgrey" stroke="black" points="433.75,-198.25 322.5,-198.25 322.5,-162.25 433.75,-162.25 433.75,-198.25"/>
<text xml:space="preserve" text-anchor="middle" x="378.12" y="-175.57" font-family="Times,serif" font-size="14.00">is formatted?</text>
</g>
<!-- mount&#45;&gt;formatted -->
<g id="edge15" class="edge">
<title>mount&#45;&gt;formatted</title>
<path fill="none" stroke="white" d="M378.12,-251.26C378.12,-239.43 378.12,-223.45 378.12,-209.75"/>
<polygon fill="white" stroke="white" points="381.63,-209.97 378.13,-199.97 374.63,-209.97 381.63,-209.97"/>
<text xml:space="preserve" text-anchor="middle" x="393.12" y="-220.2" font-family="Times,serif" font-size="14.00" fill="white">true</text>
</g>
<!-- yes_mount -->
<g id="node13" class="node">
<title>yes_mount</title>
<polygon fill="lightgrey" stroke="black" points="405,-36 343.25,-36 343.25,0 405,0 405,-36"/>
<text xml:space="preserve" text-anchor="middle" x="374.12" y="-13.32" font-family="Times,serif" font-size="14.00">mount</text>
</g>
<!-- formatted&#45;&gt;yes_mount -->
<g id="edge16" class="edge">
<title>formatted&#45;&gt;yes_mount</title>
<path fill="none" stroke="white" d="M375.92,-161.96C374.22,-147.77 372.03,-127.12 371.12,-109 370.33,-93.02 370.68,-88.99 371.12,-73 371.35,-64.8 371.77,-55.91 372.23,-47.76"/>
<polygon fill="white" stroke="white" points="375.71,-48.2 372.82,-38.01 368.72,-47.78 375.71,-48.2"/>
<text xml:space="preserve" text-anchor="middle" x="386.12" y="-86.33" font-family="Times,serif" font-size="14.00" fill="white">true</text>
</g>
<!-- format -->
<g id="node14" class="node">
<title>format</title>
<polygon fill="lightgrey" stroke="black" points="474.12,-109 410.12,-109 410.12,-73 474.12,-73 474.12,-109"/>
<text xml:space="preserve" text-anchor="middle" x="442.12" y="-86.33" font-family="Times,serif" font-size="14.00">format</text>
</g>
<!-- formatted&#45;&gt;format -->
<g id="edge17" class="edge">
<title>formatted&#45;&gt;format</title>
<path fill="none" stroke="white" d="M390.77,-162.01C399.89,-149.58 412.36,-132.58 422.73,-118.44"/>
<polygon fill="white" stroke="white" points="425.52,-120.56 428.61,-110.42 419.87,-116.42 425.52,-120.56"/>
<text xml:space="preserve" text-anchor="middle" x="432.73" y="-130.95" font-family="Times,serif" font-size="14.00" fill="white">false</text>
</g>
<!-- format&#45;&gt;yes_mount -->
<g id="edge18" class="edge">
<title>format&#45;&gt;yes_mount</title>
<path fill="none" stroke="white" d="M425.66,-72.81C417.48,-64.27 407.43,-53.77 398.38,-44.32"/>
<polygon fill="white" stroke="white" points="400.93,-41.92 391.48,-37.12 395.87,-46.76 400.93,-41.92"/>
</g>
</g>
</svg>
